<?xml version="1.0" encoding="UTF-8" standalone="no"?>
<!-- Created with Inkscape (http://www.inkscape.org/) -->

<svg
   xmlns:dc="http://purl.org/dc/elements/1.1/"
   xmlns:cc="http://creativecommons.org/ns#"
   xmlns:rdf="http://www.w3.org/1999/02/22-rdf-syntax-ns#"
   xmlns:svg="http://www.w3.org/2000/svg"
   xmlns="http://www.w3.org/2000/svg"
   xmlns:sodipodi="http://sodipodi.sourceforge.net/DTD/sodipodi-0.dtd"
   xmlns:inkscape="http://www.inkscape.org/namespaces/inkscape"
   version="1.1"
   width="293.99576"
   height="475.25531"
   id="svg2">
  <defs
     id="defs6" />
  <path fill="param(fill) #FFF" stroke="param(outline) #000" stroke-width="param(outline-width) 1"
     d="m 146.9979,0 c 0,0 -0.66051,4.9421634 -2.47267,11.340964 -1.81216,6.3988 -4.43563,18.659124 -9.36358,26.701118 -13.26734,21.651125 -34.64205,37.150737 -52.604647,55.098945 -17.21121,17.197413 -40.266796,29.528393 -52.834466,50.361783 -9.907068,16.42292 -14.887021,36.19484 -15.693903,55.3576 -0.967456,22.97625 10.210915,44.91561 13.170767,67.72095 3.575697,27.55035 5.500436,83.16256 5.500436,83.16256 L 0,350.90455 l 0,124.35076 293.99577,0 0,-124.35076 -32.69984,-1.16063 c 0,0 1.87285,-55.61351 5.44998,-83.16256 2.96156,-22.80836 14.18057,-44.74114 13.22123,-67.72095 -0.8,-19.16305 -5.78684,-38.93468 -15.6939,-55.3576 C 251.70557,122.66942 228.59933,110.38899 211.43878,93.141027 193.7256,75.337625 173.06871,59.622556 159.73295,38.341686 154.62021,30.182887 151.39356,17.809966 149.47057,11.340964 147.54757,4.8719614 146.9979,0 146.9979,0 z"
     id="path3810" />
</svg>
