<?xml version="1.0" encoding="UTF-8" standalone="no"?>
<!-- Created with Inkscape (http://www.inkscape.org/) -->

<svg
   xmlns:dc="http://purl.org/dc/elements/1.1/"
   xmlns:cc="http://creativecommons.org/ns#"
   xmlns:rdf="http://www.w3.org/1999/02/22-rdf-syntax-ns#"
   xmlns:svg="http://www.w3.org/2000/svg"
   xmlns="http://www.w3.org/2000/svg"
   version="1.1"
   width="241.4375"
   height="300.84375"
   id="svg2">
  <defs
     id="defs6" />
  <path fill="param(fill) #FFF" stroke="param(outline) #000" stroke-width="param(outline-width) 1"
     d="m 120.71875,10 c 0,0 -55.128225,83.64631 -55.53125,114.59375 C 34.67628,124.78052 10,149.56982 10,180.125 c 0,30.55518 24.67628,55.34448 55.1875,55.53125 0.186774,30.51122 24.97607,55.1875 55.53125,55.1875 30.55518,0 55.34448,-24.67628 55.53125,-55.1875 30.51122,-0.18677 55.1875,-24.97607 55.1875,-55.53125 0,-30.55518 -24.67628,-55.34448 -55.1875,-55.53125 C 175.84697,93.64631 120.71875,10 120.71875,10 z M 55.3125,156.15625 c 13.624297,0 24.65625,11.03195 24.65625,24.65625 0,13.6243 -11.031953,24.6875 -24.65625,24.6875 -13.624297,0 -24.65625,-11.0632 -24.65625,-24.6875 0,-13.6243 11.031953,-24.65625 24.65625,-24.65625 z m 130.40625,0 c 13.6243,0 24.65625,11.03195 24.65625,24.65625 0,13.6243 -11.03195,24.6875 -24.65625,24.6875 -13.6243,0 -24.6875,-11.0632 -24.6875,-24.6875 0,-13.6243 11.0632,-24.65625 24.6875,-24.65625 z M 120.625,220.8125 c 13.6243,0 24.6875,11.03195 24.6875,24.65625 0,13.6243 -11.0632,24.6875 -24.6875,24.6875 -13.6243,0 -24.65625,-11.0632 -24.65625,-24.6875 0,-13.6243 11.03195,-24.65625 24.65625,-24.65625 z"
     id="path2983-1-0-4" />
</svg>
