<?xml version="1.0" encoding="UTF-8" standalone="no"?>
<!-- Created with Inkscape (http://www.inkscape.org/) -->

<svg
   xmlns:dc="http://purl.org/dc/elements/1.1/"
   xmlns:cc="http://creativecommons.org/ns#"
   xmlns:rdf="http://www.w3.org/1999/02/22-rdf-syntax-ns#"
   xmlns:svg="http://www.w3.org/2000/svg"
   xmlns="http://www.w3.org/2000/svg"
   version="1.1"
   width="359.97061"
   height="487.59711"
   id="svg2">
  <defs
     id="defs6" />
  <path fill="param(fill) #FFF" stroke="param(outline) #000" stroke-width="param(outline-width) 1"
     d="m 181.12655,0.0033556 c -7.18453,0.144521 -14.312,4.3889863 -19.40625,11.5625004 L 8.5327955,179.97211 c -5.314293,7.29188 -8.46146201,17.64827 -8.53125001,28.125 -0.06979,10.47672 2.22129201,71.56754 7.43750001,79 5.2162075,7.43246 12.5679365,11.74966 19.9687495,11.71875 7.40081,-0.0309 14.75237,-4.39909 19.9375,-11.875 l 35.5,-49.96875 -57.15625,251.12825 300.062555,-0.5 -60.31255,-264.87825 45.65625,64.8125 c 5.1615,7.5121 12.50384,11.95308 19.90625,12.03125 7.4024,0.0782 14.75992,-4.19149 20,-11.59375 5.24009,-7.40225 9.00798,-68.48921 8.96875,-78.96875 -0.0392,-10.47955 -3.14229,-20.86428 -8.4375,-28.1875 L 201.3453,11.659606 C 196.06302,4.1570049 188.60846,-0.1374084 181.12655,0.0033556 z"
     id="path2985-1" />
</svg>
